<svg width="220" height="220" viewBox="0 0 220 220" fill="none" xmlns="http://www.w3.org/2000/svg">
<g clip-path="url(#clip0_2211_5)">
<g filter="url(#filter0_dd_2211_5)">
<rect width="220" height="220" rx="52" fill="url(#paint0_linear_2211_5)"/>
<rect width="220" height="220" rx="52" fill="url(#paint1_radial_2211_5)" fill-opacity="0.2"/>
</g>
<g filter="url(#filter1_f_2211_5)">
<path d="M50.5 173V53.5H74.4V77.4H98.3V101.3H122.2V125.2H98.3V101.3H74.4V173H50.5ZM146.1 173V101.3H122.2V77.4H146.1V53.5H170V173H146.1Z" fill="#FFFDF8"/>
</g>
<path d="M50.7644 172.736V53.7644H74.5587V77.5587H98.3529V101.353H122.147V125.147H98.3529V101.353H74.5587V172.736H50.7644ZM145.941 172.736V101.353H122.147V77.5587H145.941V53.7644H169.736V172.736H145.941Z" fill="white"/>
</g>
<defs>
<filter id="filter0_dd_2211_5" x="-10" y="-5" width="240" height="240" filterUnits="userSpaceOnUse" color-interpolation-filters="sRGB">
<feFlood flood-opacity="0" result="BackgroundImageFix"/>
<feColorMatrix in="SourceAlpha" type="matrix" values="0 0 0 0 0 0 0 0 0 0 0 0 0 0 0 0 0 0 127 0" result="hardAlpha"/>
<feOffset dy="5"/>
<feGaussianBlur stdDeviation="5"/>
<feColorMatrix type="matrix" values="0 0 0 0 0 0 0 0 0 0 0 0 0 0 0 0 0 0 0.05 0"/>
<feBlend mode="normal" in2="BackgroundImageFix" result="effect1_dropShadow_2211_5"/>
<feColorMatrix in="SourceAlpha" type="matrix" values="0 0 0 0 0 0 0 0 0 0 0 0 0 0 0 0 0 0 127 0" result="hardAlpha"/>
<feOffset dy="1"/>
<feGaussianBlur stdDeviation="1.5"/>
<feComposite in2="hardAlpha" operator="out"/>
<feColorMatrix type="matrix" values="0 0 0 0 0 0 0 0 0 0 0 0 0 0 0 0 0 0 0.2 0"/>
<feBlend mode="normal" in2="effect1_dropShadow_2211_5" result="effect2_dropShadow_2211_5"/>
<feBlend mode="normal" in="SourceGraphic" in2="effect2_dropShadow_2211_5" result="shape"/>
</filter>
<filter id="filter1_f_2211_5" x="32.1" y="35.1" width="156.3" height="156.3" filterUnits="userSpaceOnUse" color-interpolation-filters="sRGB">
<feFlood flood-opacity="0" result="BackgroundImageFix"/>
<feBlend mode="normal" in="SourceGraphic" in2="BackgroundImageFix" result="shape"/>
<feGaussianBlur stdDeviation="9.2" result="effect1_foregroundBlur_2211_5"/>
</filter>
<linearGradient id="paint0_linear_2211_5" x1="110" y1="0" x2="110" y2="220" gradientUnits="userSpaceOnUse">
<stop offset="0.432762" stop-color="#131313"/>
<stop offset="1" stop-color="#1348DC"/>
</linearGradient>
<radialGradient id="paint1_radial_2211_5" cx="0" cy="0" r="1" gradientUnits="userSpaceOnUse" gradientTransform="translate(110 110) rotate(90) scale(110)">
<stop stop-color="#C9C9C9"/>
<stop offset="1" stop-color="#111111"/>
</radialGradient>
<clipPath id="clip0_2211_5">
<rect width="220" height="220" fill="white"/>
</clipPath>
</defs>
</svg>
